 <svg  version="1.0" xmlns="http://www.w3.org/2000/svg"  width="765.000000pt" height="651.000000pt" viewBox="0 0 765.000000 651.000000"  preserveAspectRatio="xMidYMid meet">  <g transform="translate(0.000000,651.000000) scale(0.100000,-0.100000)" fill="#ff0000" stroke="none"> <path d="M3770 5525 c-36 -7 -78 -17 -93 -24 -16 -6 -42 -11 -58 -11 -19 0 -29 -5 -29 -15 0 -10 -10 -15 -30 -15 -16 0 -30 -5 -30 -10 0 -6 -12 -15 -26 -20 -14 -6 -45 -26 -68 -45 -24 -19 -50 -35 -60 -35 -9 0 -16 -6 -16 -12 0 -22 -117 -138 -138 -138 -10 0 -31 -9 -46 -21 -14 -11 -31 -17 -37 -14 -6 4 -29 9 -52 11 -50 6 -185 -35 -199 -60 -5 -9 -15 -16 -23 -16 -31 0 -125 -67 -125 -90 0 -4 -16 -15 -35 -26 -20 -10 -38 -29 -41 -41 -3 -12 -12 -27 -20 -34 -8 -6 -14 -20 -14 -30 0 -37 -55 -151 -80 -168 -13 -9 -32 -24 -42 -33 -9 -9 -25 -14 -36 -11 -14 3 -24 -2 -31 -16 -7 -12 -20 -21 -31 -21 -19 0 -210 -178 -210 -197 0 -15 -30 -73 -39 -73 -13 0 -51 -136 -61 -221 -6 -46 -13 -92 -16 -102 -13 -41 67 -312 99 -338 14 -12 18 -24 15 -43 -4 -18 -1 -29 9 -33 7 -3 20 -17 28 -32 24 -45 160 -181 181 -181 11 0 27 -9 37 -20 9 -11 24 -20 33 -20 9 0 28 -8 42 -19 25 -17 54 -27 112 -38 13 -2 30 -9 37 -14 19 -17 1516 -29 1977 -16 227 6 301 14 331 37 6 5 55 32 110 60 55 28 104 58 108 66 6 11 17 13 38 9 18 -4 29 -3 29 4 0 6 -6 11 -12 11 -11 0 40 53 59 62 12 5 47 58 68 101 10 21 26 42 36 48 11 5 19 18 19 28 0 10 9 28 20 40 13 16 17 32 14 51 -4 15 -1 31 5 34 6 4 11 20 11 36 0 16 7 55 15 88 29 112 -1 323 -60 432 -17 30 -37 69 -45 85 -9 17 -25 34 -37 40 -12 5 -34 28 -49 52 -15 24 -32 43 -38 43 -14 0 -60 49 -69 73 -3 9 -14 17 -24 18 -10 0 -36 11 -58 24 -22 13 -53 30 -70 39 -35 17 -146 46 -180 46 -33 0 -85 32 -85 53 0 9 -9 25 -20 34 -11 10 -20 25 -20 35 0 17 -40 92 -87 160 -15 23 -23 46 -20 58 3 11 1 20 -4 20 -5 0 -9 10 -9 23 -1 21 -1 21 -15 3 -14 -19 -16 -18 -32 21 -10 23 -31 50 -48 62 -17 11 -47 35 -66 53 -20 18 -67 49 -104 68 -37 19 -70 43 -73 52 -5 21 -35 32 -61 23 -12 -3 -23 0 -28 9 -22 39 -304 66 -433 41z m306 -60 c16 -8 37 -15 46 -15 18 0 33 -6 153 -60 147 -67 280 -210 379 -407 45 -90 59 -136 58 -185 -1 -37 11 -43 98 -44 41 0 95 -6 120 -13 54 -16 123 -43 130 -51 3 -3 30 -21 60 -39 59 -36 64 -40 125 -98 156 -148 223 -321 210 -543 -4 -58 -13 -116 -21 -132 -8 -15 -14 -36 -14 -46 0 -29 -29 -87 -82 -167 -51 -76 -91 -117 -153 -158 -22 -14 -51 -35 -65 -46 -14 -11 -30 -21 -36 -21 -6 0 -17 -7 -24 -15 -7 -8 -19 -15 -28 -15 -8 0 -23 -6 -31 -13 -9 -8 -38 -22 -66 -32 -48 -18 -102 -19 -1142 -18 -731 0 -1097 4 -1105 10 -7 6 -27 14 -45 17 -17 4 -37 14 -44 22 -6 8 -17 14 -24 14 -12 0 -68 24 -95 41 -8 5 -24 13 -35 18 -49 23 -169 155 -179 197 -4 14 -18 43 -32 65 -13 22 -27 54 -31 72 -3 18 -11 41 -18 52 -27 44 -38 195 -21 295 13 74 48 173 73 207 12 17 23 38 23 46 0 23 152 160 206 185 96 46 109 51 139 54 28 3 31 8 46 63 8 33 20 73 27 88 7 16 12 37 12 48 0 24 22 59 73 119 47 55 90 81 230 143 50 23 199 24 217 2 27 -33 55 -18 103 58 101 156 264 272 409 292 26 3 50 10 53 16 10 16 268 11 301 -6z"/> <path d="M3770 5270 c-25 -4 -58 -14 -75 -23 -16 -8 -55 -27 -85 -41 -30 -14 -66 -36 -80 -49 -40 -36 -98 -111 -115 -148 -8 -19 -19 -41 -24 -49 -5 -8 -18 -37 -28 -65 -18 -48 -21 -50 -60 -53 -36 -3 -42 1 -64 32 -24 35 -42 43 -109 47 -50 3 -98 -10 -145 -39 -40 -25 -84 -69 -85 -86 0 -5 -6 -17 -13 -25 -25 -31 -39 -94 -46 -204 l-6 -112 -116 4 c-78 2 -119 -1 -124 -8 -3 -6 -21 -17 -38 -25 -36 -15 -113 -84 -133 -118 -65 -113 -68 -126 -68 -273 0 -150 2 -156 68 -272 30 -53 140 -149 206 -180 117 -54 93 -51 470 -62 488 -15 1722 0 1772 22 18 8 58 25 88 37 97 40 208 143 247 230 4 8 10 18 15 21 4 3 16 32 26 65 25 87 24 274 -3 334 -11 25 -22 47 -25 50 -3 3 -22 28 -42 55 -55 75 -128 138 -210 181 -73 37 -74 38 -193 38 -105 0 -125 -3 -160 -22 -22 -12 -48 -22 -57 -22 -22 0 -24 -28 -2 -37 9 -3 38 -1 65 5 35 8 57 9 76 1 21 -8 38 -7 66 2 33 11 42 10 67 -4 15 -9 44 -17 62 -17 36 0 158 -69 158 -90 0 -5 6 -10 13 -10 8 0 29 -24 47 -52 19 -29 40 -57 47 -63 16 -13 33 -90 40 -183 5 -73 -15 -174 -38 -188 -5 -3 -9 -13 -9 -24 0 -10 -6 -20 -14 -23 -7 -3 -16 -20 -20 -37 -5 -26 -10 -31 -26 -27 -16 4 -20 0 -20 -19 0 -13 -5 -24 -10 -24 -6 0 -33 -18 -61 -40 -28 -22 -59 -40 -69 -40 -11 0 -23 -6 -27 -14 -4 -7 -30 -16 -57 -18 -27 -3 -51 -10 -55 -16 -4 -6 -201 -10 -531 -11 -289 0 -613 -3 -720 -6 -170 -4 -615 6 -753 18 -31 3 -56 12 -70 25 -13 12 -29 22 -35 22 -15 0 -63 29 -77 47 -5 7 -22 17 -36 22 -17 6 -36 27 -50 55 -18 37 -27 45 -42 40 -17 -5 -18 -2 -12 24 3 17 2 33 -4 36 -22 14 -40 70 -47 145 -6 75 -5 80 16 91 20 11 20 13 6 29 -18 20 -21 47 -6 56 6 4 17 22 25 41 8 19 20 34 28 34 7 0 20 14 28 32 8 17 28 39 45 48 18 9 39 24 49 33 9 9 32 17 50 17 19 0 37 5 41 11 4 7 25 9 55 7 33 -4 53 -1 60 8 6 7 20 12 32 11 16 -2 25 9 40 48 11 28 19 68 19 91 -2 45 39 173 69 215 26 37 95 69 144 67 22 -1 62 -12 88 -25 70 -36 106 -39 162 -14 37 16 46 25 41 38 -4 10 -4 14 0 10 11 -10 34 13 34 34 0 22 51 118 87 166 30 39 102 90 141 99 15 4 33 14 40 22 8 11 25 15 49 14 21 -2 66 5 101 14 53 14 71 15 113 6 28 -7 68 -12 89 -12 21 0 43 -6 50 -15 7 -8 24 -15 37 -15 16 0 27 -7 30 -20 3 -11 9 -20 13 -20 8 0 52 -35 91 -73 11 -9 24 -16 31 -15 6 2 14 -5 16 -15 2 -11 12 -27 23 -38 10 -10 19 -25 19 -33 0 -7 7 -19 15 -26 8 -7 15 -22 15 -35 0 -12 9 -30 20 -40 11 -10 20 -25 20 -33 0 -9 8 -24 18 -35 14 -16 17 -35 14 -108 -2 -75 1 -91 16 -106 11 -10 22 -27 26 -37 5 -15 9 -17 18 -8 8 8 12 50 12 115 0 128 -15 176 -113 356 -25 45 -176 187 -237 221 -35 21 -85 39 -128 46 -76 14 -223 16 -296 4z"/> <path d="M6460 2964 c-14 -8 -39 -14 -55 -14 -44 0 -70 -23 -88 -77 -17 -52 -26 -201 -13 -221 15 -25 -24 -23 -57 2 -19 14 -45 26 -58 26 -13 0 -49 7 -79 15 -82 22 -205 2 -247 -40 -8 -8 -21 -15 -29 -15 -8 0 -14 -4 -14 -10 0 -5 -6 -10 -12 -10 -18 -1 -62 -39 -83 -72 -9 -16 -24 -28 -31 -28 -16 0 -60 41 -56 53 1 4 -6 11 -15 14 -10 4 -28 19 -40 34 -49 58 -95 73 -238 75 l-130 2 3 49 c5 64 -20 123 -66 160 l-37 30 -325 -2 c-314 -1 -326 -2 -367 -23 -56 -29 -70 -52 -83 -142 -9 -57 -19 -84 -41 -112 -16 -20 -29 -41 -29 -46 0 -5 -9 -17 -21 -28 -14 -12 -18 -25 -14 -41 4 -16 -3 -39 -21 -68 -25 -44 -26 -44 -50 -29 -17 12 -24 25 -24 48 0 67 -118 203 -193 221 -41 11 -42 12 -63 81 -27 91 -48 120 -98 145 -33 16 -52 18 -99 13 -55 -6 -60 -9 -73 -40 -8 -18 -18 -35 -24 -39 -5 -3 -10 -28 -10 -54 0 -34 -6 -56 -22 -76 -21 -27 -22 -27 -109 -20 -58 4 -89 3 -94 -4 -3 -6 -15 -11 -27 -11 -23 0 -67 -23 -119 -62 -20 -16 -48 -28 -62 -28 -31 0 -78 19 -92 38 -9 10 -103 32 -143 32 -7 0 -38 -24 -69 -52 l-55 -53 7 -120 c14 -224 14 -212 -9 -234 -12 -12 -35 -23 -51 -27 -53 -10 -64 44 -55 281 1 28 6 55 12 62 11 14 5 27 -41 79 -30 34 -41 39 -95 46 -70 8 -92 4 -106 -22 -9 -17 -6 -18 49 -13 50 5 65 2 96 -17 l37 -23 -3 -222 c-3 -228 0 -255 36 -255 7 0 18 -7 25 -15 16 -19 82 -20 119 -1 57 30 87 118 77 224 -18 191 -24 266 -20 277 9 22 48 30 116 25 l68 -5 4 -210 c5 -213 18 -401 31 -443 13 -39 -18 -62 -85 -62 -61 0 -90 18 -90 56 -1 69 -39 87 -67 30 -17 -37 -33 -47 -103 -70 -39 -13 -51 -13 -85 -1 -22 8 -46 14 -54 15 -17 0 -93 77 -109 110 -37 80 -42 113 -42 341 0 226 -3 249 -36 249 -7 0 -16 -9 -19 -20 -10 -30 -49 -25 -114 14 -31 19 -74 37 -96 41 -22 4 -55 14 -74 22 -48 22 -143 11 -193 -22 -21 -14 -49 -25 -64 -25 -18 0 -25 -4 -21 -14 7 -17 -11 -36 -34 -36 -9 0 -19 -10 -23 -24 -6 -25 -31 -40 -47 -30 -6 3 -7 15 -3 26 3 11 1 32 -6 48 -8 20 -9 38 -1 65 14 51 -13 202 -41 232 -44 47 -129 58 -179 22 l-34 -24 90 -5 90 -5 -4 -370 c-3 -310 -1 -384 13 -454 9 -46 16 -101 16 -122 0 -44 24 -55 36 -17 3 12 14 30 24 41 15 15 22 17 39 8 12 -7 21 -15 21 -20 0 -4 32 -30 70 -56 l71 -49 97 1 c155 0 246 36 335 131 17 17 35 32 40 32 5 0 42 -33 81 -74 67 -67 77 -74 125 -80 28 -4 62 -12 75 -17 19 -9 34 -6 78 15 55 26 138 36 138 16 0 -19 51 -31 101 -24 52 7 109 47 109 77 0 25 35 40 50 22 7 -8 21 -15 31 -15 11 0 32 -14 47 -30 19 -21 45 -35 86 -46 61 -15 72 -14 188 12 65 16 68 15 97 -5 26 -19 39 -21 98 -16 82 7 144 24 141 39 0 6 1 18 4 26 23 66 28 95 28 153 0 53 3 67 15 67 21 0 19 13 -5 28 -17 10 -18 16 -10 32 15 28 30 25 30 -5 0 -16 6 -25 15 -25 8 0 15 -9 15 -20 0 -11 -4 -20 -10 -20 -18 0 -10 -22 10 -27 16 -4 20 -14 20 -49 0 -23 5 -46 10 -49 20 -12 9 -35 -50 -95 -45 -46 -60 -69 -60 -90 0 -16 5 -32 11 -36 6 -3 8 -17 5 -30 -7 -28 23 -96 40 -90 7 3 17 -1 23 -8 17 -20 148 -19 201 2 63 24 129 100 170 195 19 42 38 77 43 77 5 0 6 12 3 26 -4 16 -1 35 7 48 8 11 20 39 27 61 7 22 33 78 56 124 24 46 44 89 44 95 0 6 18 38 40 71 22 33 40 68 40 77 0 28 18 21 36 -13 18 -35 19 -64 15 -284 -3 -155 2 -184 38 -222 44 -46 183 -44 230 4 38 39 71 88 71 107 0 20 36 21 44 1 3 -8 17 -20 31 -25 14 -5 25 -13 25 -18 0 -15 122 -90 176 -108 62 -22 227 -22 276 0 18 8 57 37 86 65 30 28 60 51 68 51 8 0 14 9 14 21 0 29 34 16 85 -32 22 -21 48 -39 58 -39 9 0 36 -13 59 -30 22 -17 51 -30 64 -30 13 0 25 -4 28 -9 11 -17 84 -21 140 -6 31 8 66 15 77 15 10 0 38 14 61 30 22 17 51 30 63 30 13 0 26 7 29 16 3 9 6 84 6 167 0 89 6 183 14 226 11 57 13 129 9 308 -3 133 -2 233 3 234 5 0 42 2 82 4 40 2 76 6 80 9 3 4 -7 19 -24 35 -26 26 -31 27 -54 15z m-2666 -74 c18 -17 31 -178 18 -225 -8 -30 -10 -102 -6 -227 3 -101 1 -255 -3 -343 l-8 -160 -70 -6 c-38 -3 -76 -4 -82 -2 -8 3 -12 21 -11 45 2 63 -19 67 -69 11 l-42 -48 -109 0 -108 0 -52 49 c-29 27 -52 53 -52 58 0 4 -13 27 -30 50 -16 22 -30 51 -30 64 0 12 -7 51 -16 85 -38 150 29 300 174 387 95 58 193 42 294 -47 42 -38 48 -40 56 -24 6 10 6 41 1 73 -10 71 -11 264 -1 274 9 10 134 -3 146 -14z m1358 -75 c4 -39 4 -83 1 -99 l-5 -29 -149 5 c-135 5 -149 4 -149 -11 0 -9 6 -23 13 -29 9 -10 13 -100 15 -362 l4 -348 -89 -4 c-48 -2 -94 1 -101 6 -10 7 -12 25 -7 65 3 31 8 188 10 349 2 161 7 297 10 302 3 4 3 14 0 22 -4 11 -31 13 -134 10 -168 -6 -171 -4 -171 93 0 46 4 77 12 81 6 4 154 7 327 5 179 -1 329 3 346 8 54 17 59 12 67 -64z m-1161 -177 c10 -13 18 -30 19 -39 0 -9 7 -22 15 -29 8 -7 15 -23 15 -36 0 -12 4 -25 9 -28 4 -3 11 -19 14 -35 3 -16 20 -58 37 -94 16 -35 30 -72 30 -82 0 -27 34 -115 44 -115 22 0 46 35 46 66 0 18 4 35 9 38 5 3 19 38 31 78 12 40 28 84 35 98 17 33 37 129 29 141 -9 15 24 59 45 59 10 0 24 -7 31 -15 9 -11 34 -15 96 -15 76 0 84 -2 84 -19 0 -11 -3 -21 -7 -23 -11 -4 -53 -65 -53 -76 0 -6 -27 -63 -60 -127 -33 -64 -60 -121 -60 -126 0 -4 -13 -28 -30 -52 -16 -25 -30 -54 -30 -65 0 -11 -13 -50 -30 -87 -16 -37 -30 -74 -30 -83 0 -22 -78 -180 -107 -215 -27 -35 -90 -57 -162 -57 -57 0 -57 0 -73 38 -31 72 -31 92 -3 118 17 15 38 24 59 24 19 0 44 8 57 19 18 15 22 27 21 69 0 28 -8 64 -16 81 -9 16 -16 37 -16 46 0 9 -13 40 -30 70 -16 30 -30 63 -30 73 0 11 -16 52 -35 91 -19 39 -35 79 -35 90 0 11 -4 23 -10 26 -5 3 -10 16 -10 28 0 12 -7 31 -15 41 -15 20 -20 100 -9 130 4 12 20 16 56 16 39 0 54 -5 69 -22z m2100 1 c138 -44 218 -103 205 -153 -7 -27 -81 -68 -121 -68 -13 0 -44 14 -70 31 -25 17 -49 31 -52 31 -4 0 -15 8 -25 17 -18 16 -21 16 -49 -1 -36 -21 -79 -60 -79 -71 0 -5 -8 -17 -17 -28 -14 -14 -18 -36 -18 -87 0 -51 4 -73 18 -87 9 -11 17 -24 17 -30 0 -23 62 -94 95 -107 45 -19 76 -7 125 47 35 39 35 39 70 24 38 -15 57 -34 85 -84 18 -31 18 -33 0 -53 -10 -11 -25 -20 -33 -20 -8 0 -31 -13 -51 -28 -52 -40 -124 -56 -187 -41 -57 13 -55 12 -130 63 -63 43 -103 83 -104 104 0 6 -3 12 -8 12 -17 0 -35 83 -39 183 -4 95 -2 113 17 153 54 110 178 195 301 203 9 1 31 -4 50 -10z m-3920 -22 c13 -9 30 -17 39 -17 26 0 114 -85 142 -136 33 -60 52 -163 43 -229 -12 -94 -74 -189 -174 -265 l-44 -34 -128 -1 -128 0 -65 70 c-36 38 -69 77 -72 87 -3 10 -10 18 -15 18 -5 0 -9 6 -9 13 0 6 -7 26 -16 42 -11 20 -17 57 -18 110 -1 72 2 87 32 145 47 93 154 201 212 213 52 11 176 1 201 -16z m3342 -26 c118 -88 143 -139 163 -340 7 -62 7 -63 -15 -52 -14 8 -83 11 -209 10 -129 -1 -199 2 -226 11 -32 10 -40 10 -47 -1 -13 -21 -13 -21 40 -73 32 -31 68 -55 101 -67 49 -17 55 -17 84 -2 17 9 44 29 60 44 17 16 37 29 46 29 17 0 82 -31 105 -50 17 -14 21 -70 5 -70 -5 0 -24 -12 -42 -27 -69 -58 -102 -68 -222 -68 -99 0 -115 3 -148 24 -21 12 -38 27 -38 32 0 5 -7 9 -16 9 -26 0 -104 94 -129 153 -13 34 -24 87 -28 138 -5 83 -5 83 34 150 45 75 141 159 182 159 8 0 20 7 27 15 10 12 36 15 117 15 l104 0 52 -39z m-492 -1 c28 0 23 -12 -16 -39 -19 -13 -35 -30 -35 -37 0 -21 -30 -17 -31 4 -3 45 23 87 49 77 7 -3 22 -5 33 -5z m1051 -204 c9 -1 35 -11 58 -21 24 -11 44 -15 48 -9 4 5 21 10 37 10 17 1 37 3 45 5 12 3 15 -10 18 -71 3 -95 -5 -109 -51 -92 -41 15 -74 15 -82 2 -4 -6 -21 -8 -39 -4 -24 4 -38 1 -51 -12 -14 -14 -21 -15 -36 -6 -10 7 -26 12 -34 12 -9 0 -15 9 -15 23 0 13 -7 32 -15 43 -24 31 -19 64 19 122 6 10 19 12 45 7 20 -5 43 -9 53 -9z m-3322 -206 c8 -5 11 -12 8 -16 -10 -9 -38 3 -38 16 0 12 10 13 30 0z"/> <path d="M3369 2459 c-53 -29 -89 -86 -96 -151 -7 -66 9 -121 42 -142 13 -8 35 -26 49 -40 15 -13 38 -27 51 -30 33 -8 97 27 156 84 50 49 67 100 54 158 -8 36 -81 112 -109 112 -12 1 -32 7 -46 15 -33 19 -58 18 -101 -6z m124 -82 c10 -1 26 -15 35 -30 16 -26 16 -29 -5 -67 -17 -28 -19 -40 -10 -44 6 -2 1 -4 -12 -3 -18 2 -26 -4 -31 -22 -7 -29 -28 -39 -36 -17 -3 9 -15 16 -26 16 -12 0 -31 11 -44 25 -16 17 -19 25 -9 25 25 0 27 20 7 54 -11 19 -18 37 -15 40 11 11 41 6 46 -6 3 -7 6 -4 6 8 1 30 12 36 46 29 16 -4 38 -7 48 -8z"/> <path d="M1990 2465 c-7 -8 -19 -15 -26 -15 -20 0 -84 -139 -84 -183 0 -57 101 -169 164 -181 61 -12 85 5 155 109 32 47 41 69 41 103 0 77 -27 115 -117 164 -41 22 -116 24 -133 3z m137 -114 c20 -25 24 -39 19 -64 -8 -41 -32 -77 -53 -77 -9 0 -24 -7 -34 -16 -17 -15 -20 -15 -46 6 -34 26 -45 69 -29 114 26 76 98 94 143 37z"/> <path d="M5300 2487 c-97 -46 -148 -103 -119 -133 13 -12 21 -13 45 -4 18 7 77 10 154 8 120 -3 125 -2 128 18 4 31 -56 98 -100 112 -46 15 -75 14 -108 -1z"/> <path d="M1000 2944 c-25 -3 -54 -8 -65 -13 -11 -4 -38 -14 -60 -21 -42 -13 -154 -80 -155 -92 0 -4 -23 -31 -50 -60 -50 -52 -120 -179 -120 -217 0 -10 -7 -38 -16 -62 -17 -49 -26 -186 -13 -195 5 -3 9 -14 9 -24 0 -55 170 -310 206 -310 8 0 31 -11 52 -24 59 -37 126 -50 262 -51 117 0 130 2 205 32 44 17 88 34 98 37 9 3 17 12 17 21 0 26 21 16 70 -33 57 -57 119 -81 178 -66 57 14 49 39 -13 41 -27 1 -66 8 -85 16 l-35 15 -4 204 c-2 111 -3 319 -1 461 1 189 -2 262 -10 272 -13 16 -60 21 -60 6 0 -19 -35 -22 -47 -4 -8 10 -40 23 -76 31 -34 8 -80 18 -102 23 -51 13 -127 18 -185 13z m152 -65 c29 -6 78 -24 108 -40 30 -16 61 -29 68 -29 7 0 26 -7 42 -15 41 -21 39 -58 -5 -115 -19 -25 -46 -62 -60 -82 -14 -21 -30 -38 -36 -38 -19 0 -49 21 -49 34 0 20 -60 85 -94 103 -71 37 -158 22 -239 -40 -97 -75 -142 -239 -102 -374 15 -52 76 -125 142 -171 35 -24 97 -29 164 -13 50 11 119 68 126 104 6 28 29 47 57 47 34 0 136 -113 136 -151 0 -20 -33 -55 -65 -70 -11 -5 -33 -18 -50 -29 -60 -38 -121 -61 -185 -69 -116 -14 -278 20 -342 73 -42 34 -118 129 -118 147 0 6 -7 23 -15 37 -47 86 -56 123 -52 201 3 71 17 120 52 198 8 17 15 34 15 38 0 23 146 185 167 185 7 0 13 4 13 9 0 14 85 52 137 61 71 12 126 11 185 -1z m-58 -265 c26 -15 54 -37 63 -51 9 -13 22 -22 29 -19 8 3 31 -4 51 -16 26 -16 38 -18 41 -10 2 7 12 12 23 12 10 0 19 5 19 10 0 16 47 12 64 -5 8 -9 13 -22 10 -29 -4 -11 -8 -44 -14 -131 0 -5 2 -24 6 -41 6 -31 5 -32 -40 -38 -26 -4 -55 -5 -65 -1 -11 3 -22 1 -26 -5 -4 -7 -19 -9 -38 -5 -26 6 -30 5 -19 -6 16 -18 15 -29 -4 -29 -8 0 -37 -18 -64 -41 l-48 -41 -79 12 c-43 7 -84 17 -91 23 -35 29 -81 180 -69 229 21 89 85 178 128 178 13 1 35 7 49 15 14 8 26 14 26 15 1 0 23 -12 48 -26z"/> <path d="M6537 2833 c-3 -37 -6 -110 -7 -160 -2 -102 6 -112 50 -70 95 88 227 72 341 -43 68 -67 66 -56 65 -395 l-1 -230 -70 4 c-38 2 -76 8 -84 14 -11 9 -12 48 -8 203 4 114 2 206 -4 227 -6 23 -24 48 -51 68 -34 27 -50 33 -92 33 -43 1 -59 -5 -98 -34 l-48 -34 0 -233 c0 -273 6 -259 -117 -250 -66 5 -73 4 -73 -13 0 -25 18 -36 73 -43 44 -6 58 -3 107 25 8 4 25 12 38 18 17 7 22 17 21 42 0 18 5 56 11 83 7 28 11 57 11 65 -1 8 -1 64 -1 123 0 179 42 230 122 148 37 -39 39 -44 29 -74 -8 -22 -8 -61 -2 -120 5 -48 7 -110 6 -137 -2 -28 1 -53 6 -56 5 -3 9 -13 9 -24 0 -10 17 -32 37 -50 35 -31 39 -32 105 -28 74 6 110 27 130 78 9 23 22 146 18 180 0 8 -3 86 -5 173 -3 140 -6 160 -24 183 -12 15 -21 32 -21 39 0 16 -108 118 -148 139 -19 10 -71 19 -134 24 l-101 7 -13 40 c-6 22 -16 63 -20 90 -7 40 -13 51 -30 53 -19 3 -22 -3 -27 -65z"/> </g> </svg> 